<svg id="credit_card_-_4" data-name="credit/card - 4" xmlns="http://www.w3.org/2000/svg" xmlns:xlink="http://www.w3.org/1999/xlink" width="295.551" height="163.215" viewBox="0 0 295.551 163.215">
  <defs>
    <linearGradient id="linear-gradient" x2="1.14" y2="1.111" gradientUnits="objectBoundingBox">
      <stop offset="0.119" stop-color="#282828"/>
      <stop offset="0.843" stop-color="#0b0b0b"/>
    </linearGradient>
  </defs>
  <rect id="Card_surface" data-name="Card surface" width="295.551" height="163.215" rx="17.645" transform="translate(0 0)" fill="url(#linear-gradient)"/>
  <rect id="Gousian_Layer" data-name="Gousian Layer" width="295.551" height="163.215" rx="17.645" transform="translate(0 0)" fill="rgba(255,255,255,0.03)"/>
  <path id="Effect" d="M17.645,163.214A17.645,17.645,0,0,1,0,145.57V17.645A17.645,17.645,0,0,1,17.645,0H39.683C249.175,37.478,293.825,101.868,295.353,148.218a17.648,17.648,0,0,1-17.448,15Z" fill="rgba(255,255,255,0.06)"/>
  <text id="Number" transform="translate(21.174 122.631)" fill="#fff" font-size="14.116" font-family="NunitoSans-Regular, Nunito Sans" letter-spacing="0.071em"><tspan x="0" y="14">4556 - 5642 - 0695 - 5168</tspan></text>
  <text id="Name" transform="translate(21.174 101.458)" fill="#fff" font-size="14.116" font-family="NunitoSans-Regular, Nunito Sans" letter-spacing="0.071em"><tspan x="0" y="14">Rizale Greyrat</tspan></text>
  <text id="Credit_Text" data-name="Credit Text" transform="translate(21.174 22.056)" fill="#fff" font-size="14.116" font-family="NunitoSans-Regular, Nunito Sans" opacity="0.9"><tspan x="0" y="14">Credit</tspan></text>
  <g id="Logo" transform="translate(232.029 10.587)">
    <path id="Vector" d="M16.078.243,10.534,13.47H6.917L4.189,2.913a1.447,1.447,0,0,0-.813-1.161A14.377,14.377,0,0,0,0,.626L.081.243H5.9A1.6,1.6,0,0,1,7.481,1.592L8.923,9.246l3.561-9ZM30.252,9.152c.014-3.492-4.828-3.684-4.794-5.244.011-.475.462-.979,1.45-1.108a6.458,6.458,0,0,1,3.375.593l.6-2.806A9.188,9.188,0,0,0,27.683,0C24.3,0,21.92,1.8,21.9,4.374c-.021,1.9,1.7,2.964,3,3.6,1.334.648,1.782,1.064,1.775,1.643-.009.889-1.062,1.279-2.047,1.3a7.172,7.172,0,0,1-3.515-.835l-.619,2.9a10.326,10.326,0,0,0,3.8.7C27.888,13.676,30.24,11.9,30.252,9.152Zm8.93,4.318h3.165L39.586.243H36.664a1.558,1.558,0,0,0-1.457.97L30.074,13.47h3.592l.715-1.976h4.39ZM35.365,8.784l1.8-4.967L38.2,8.784ZM20.967.243,18.139,13.47H14.716L17.548.243Z" transform="translate(0 14.335)" fill="#fff"/>
  </g>
</svg>
