<svg id="Filter" xmlns="http://www.w3.org/2000/svg" width="24" height="24" viewBox="0 0 24 24">
  <g id="Filter-2" data-name="Filter">
    <path id="Stroke_1" data-name="Stroke 1" d="M1.565,0A1.579,1.579,0,0,0,0,1.59v.936A2.549,2.549,0,0,0,.689,4.272L5.535,9.424l0,0A5.157,5.157,0,0,1,7,13.023V17.6a.4.4,0,0,0,.585.356l2.76-1.5A1.309,1.309,0,0,0,11.02,15.3V13.011a5.153,5.153,0,0,1,1.446-3.587l4.846-5.153A2.553,2.553,0,0,0,18,2.526V1.59A1.578,1.578,0,0,0,16.436,0Z" transform="translate(3 3)" fill="none" stroke="#3e3e3e" stroke-linecap="round" stroke-linejoin="round" stroke-width="1.5"/>
  </g>
  <path id="Vector_1" data-name="Vector 1" d="M0,0H10.5" transform="translate(10 7)" fill="none" stroke="#3e3e3e" stroke-linecap="round" stroke-linejoin="round" stroke-width="1.5" opacity="0.4"/>
</svg>
