<svg id="Google" xmlns="http://www.w3.org/2000/svg" width="24" height="24" viewBox="0 0 24 24">
  <path id="Vector" d="M8.617,1.823A10.551,10.551,0,0,0,8.463,0H0V3.455H4.846A4.153,4.153,0,0,1,3.053,6.181V8.423H5.944A8.762,8.762,0,0,0,8.617,1.823Z" transform="translate(12.176 10.345)" fill="#4285f4"/>
  <path id="Vector-2" data-name="Vector" d="M8.017,7.253a8.588,8.588,0,0,0,5.947-2.166L11.073,2.845A5.368,5.368,0,0,1,8.021,3.7,5.371,5.371,0,0,1,2.983,0H0V2.311A8.973,8.973,0,0,0,8.017,7.253Z" transform="translate(4.159 13.681)" fill="#34a853"/>
  <path id="Vector-3" data-name="Vector" d="M3.935,5.746a5.374,5.374,0,0,1,0-3.435V0H.954a8.979,8.979,0,0,0,0,8.057l2.98-2.311Z" transform="translate(3.204 7.935)" fill="#fbbc04"/>
  <path id="Vector-4" data-name="Vector" d="M8.017,3.551A4.875,4.875,0,0,1,11.459,4.9l2.561-2.561A8.623,8.623,0,0,0,8.017,0,8.97,8.97,0,0,0,0,4.946L2.98,7.257A5.366,5.366,0,0,1,8.017,3.551Z" transform="translate(4.159 2.989)" fill="#ea4335"/>
</svg>
